<svg width="11" height="11" viewBox="0 0 11 11" fill="none" xmlns="http://www.w3.org/2000/svg">
<path d="M7.45469 5.5L10.3864 2.56826C10.7462 2.2085 10.7462 1.6252 10.3864 1.26514L9.73486 0.613574C9.3751 0.253809 8.7918 0.253809 8.43174 0.613574L5.5 3.54531L2.56826 0.613574C2.2085 0.253809 1.6252 0.253809 1.26514 0.613574L0.613574 1.26514C0.253809 1.6249 0.253809 2.2082 0.613574 2.56826L3.54531 5.5L0.613574 8.43174C0.253809 8.7915 0.253809 9.3748 0.613574 9.73486L1.26514 10.3864C1.6249 10.7462 2.2085 10.7462 2.56826 10.3864L5.5 7.45469L8.43174 10.3864C8.7915 10.7462 9.3751 10.7462 9.73486 10.3864L10.3864 9.73486C10.7462 9.3751 10.7462 8.7918 10.3864 8.43174L7.45469 5.5Z" fill="#D8D8D8"/>
</svg>